:SAMPLES-PER-SECOND 30
:FULLY-SPECIFIED
:DEGREES
817
root  43.2861 37.2719 0.296178 101.466 85.8547 105.938
RightUpLeg  -22.6064 -8.96023 -0.534546
RightLeg  12.3147 -4.45086 0.429994
RightFoot  5.59754 0.615867 -4.16116
RightToes  -4.65663e-010 0 -3.6325e-017
Spine  3.87243 -1.87633 -2.26029
Spine1  11.0122 -3.07088 3.13291
HEad  -25.5776 0.495678 -4.72804
LeftShoulder1  -0.386521 4.50704 -32.3613
LeftArm  20.1385 -15.6942 -48.1176
LeftForeArm  15.4798 -27.0216 -4.9841
LeftHand  -0.016286 5.76821 3.39624
RightShoulder  -1.15807 -6.65168 30.2715
RightArm  18.1657 -9.00981 42.1558
RightForeArm  17.2471 13.09 6.37113
RightHand  0.0386394 3.82529 0.262447
LeftUpLeg  21.6387 7.33638 -4.73627
LeftLeg  10.1841 -2.18969 -0.83535
LeftFoot  -21.8377 0.192476 0.689678
LeftToes  8.74931e-010 -1.05764e-010 1.2659e-011
818
root  44.755 37.1935 0.326317 88.1633 87.6975 92.3481
RightUpLeg  -23.5699 -9.41095 2.33122
RightLeg  17.5362 -2.06116 -0.662549
RightFoot  4.9359 0.680989 -4.52651
RightToes  -4.65663e-010 0 -3.6325e-017
Spine  4.95916 -1.63024 1.0921
Spine1  8.42255 -2.62342 3.13573
HEad  -25.1866 0.924716 -5.12417
LeftShoulder1  -0.566297 4.93902 -33.325
LeftArm  24.4065 -11.0833 -47.7947
LeftForeArm  15.5404 -25.3913 -4.53384
LeftHand  -0.0168673 6.03015 2.5857
RightShoulder  -1.03781 -6.35502 29.8374
RightArm  16.2189 -7.39183 42.4628
RightForeArm  16.9263 11.7162 6.52065
RightHand  -0.0539963 4.75582 -0.926794
LeftUpLeg  22.8042 8.30581 -1.88646
LeftLeg  12.2858 -3.87282 -0.950103
LeftFoot  -21.2585 -0.00530258 -1.53341
LeftToes  8.74931e-010 -1.05764e-010 1.2659e-011
819
root  46.1729 37.1779 0.363538 20.6482 88.589 24.2922
RightUpLeg  -23.8011 -8.79923 4.30992
RightLeg  21.117 -1.02393 -0.697541
RightFoot  3.47074 0.762315 -5.68184
RightToes  -4.65663e-010 0 -3.6325e-017
Spine  4.84362 -1.20251 4.54124
Spine1  7.43157 -1.77395 2.45835
HEad  -25.2012 1.14773 -5.71724
LeftShoulder1  -0.562558 4.91654 -33.6402
LeftArm  24.8612 -5.74792 -47.6766
LeftForeArm  17.2345 -22.634 -4.56
LeftHand  -0.0217192 6.71534 1.03595
RightShoulder  -0.887573 -5.98299 29.2256
RightArm  13.3869 -4.75211 43.8409
RightForeArm  19.0187 9.36848 6.49786
RightHand  -0.00847839 3.19842 -0.340255
LeftUpLeg  22.7387 9.41339 0.412811
LeftLeg  15.8734 -5.03955 -1.45586
LeftFoot  -19.1353 -0.193307 -4.59864
LeftToes  8.74931e-010 -1.05764e-010 1.2659e-011
820
root  47.4663 37.2314 0.508769 10.215 89.2324 13.5674
RightUpLeg  -23.2695 -8.94948 5.19726
RightLeg  23.6999 -1.32792 -0.865761
RightFoot  1.26327 0.740096 -6.60549
RightToes  -4.65663e-010 0 -3.6325e-017
Spine  2.83578 -1.12735 6.2541
Spine1  9.74488 -1.68012 3.03729
HEad  -26.1877 1.19543 -5.75112
LeftShoulder1  -0.403638 4.51488 -33.7643
LeftArm  18.1328 -2.5604 -47.5916
LeftForeArm  23.9801 -16.7378 -7.55006
LeftHand  -0.0239673 7.91693 0.7973
RightShoulder  -0.863679 -5.92573 29.0473
RightArm  10.6983 -1.63734 45.4748
RightForeArm  20.3057 8.18437 5.88998
RightHand  0.0372403 2.5465 0.336103
LeftUpLeg  20.8525 9.335 2.69224
LeftLeg  22.3934 -7.3322 -2.98283
LeftFoot  -15.4027 -0.219147 -8.95256
LeftToes  8.74931e-010 -1.05764e-010 1.2659e-011
821
root  48.6778 37.3189 0.692092 -96.7759 88.5685 -93.7511
RightUpLeg  -22.2644 -9.89466 6.1113
RightLeg  25.2542 -1.78215 -1.15096
RightFoot  -1.13912 0.601911 -6.80332
RightToes  -4.65663e-010 0 -3.6325e-017
Spine  0.797192 -1.064 7.03503
Spine1  11.9711 -1.98082 4.92276
HEad  -25.4987 0.504465 -5.96227
LeftShoulder1  -0.444633 4.57201 -35.4346
LeftArm  4.55746 -0.939298 -46.1957
LeftForeArm  37.2646 -8.82238 -10.7302
LeftHand  -0.0664445 8.14749 -0.768467
RightShoulder  -0.811141 -5.8447 28.0426
RightArm  9.29414 0.702788 46.961
RightForeArm  19.3622 8.73129 5.43336
RightHand  0.0219133 2.65206 0.107866
LeftUpLeg  16.6531 7.93611 4.81086
LeftLeg  31.5401 -8.21119 -5.05308
LeftFoot  -8.35823 0.324415 -10.9636
LeftToes  8.74931e-010 -1.05764e-010 1.2659e-011
822
root  49.7974 37.4025 0.86702 -127.778 87.0551 -124.935
RightUpLeg  -20.8323 -10.5924 7.14117
RightLeg  26.0469 -2.41003 -1.52402
RightFoot  -3.45233 0.427347 -6.52295
RightToes  -4.65663e-010 0 -3.6325e-017
Spine  1.46301 -1.08643 10.056
Spine1  10.7191 -1.23454 3.51043
HEad  -24.0069 -1.49587 -4.47945
LeftShoulder1  -0.497909 4.70014 -35.4891
LeftArm  -2.59088 1.99477 -44.6927
LeftForeArm  44.3119 -3.86782 -10.1361
LeftHand  -0.168252 9.54144 -3.06079
RightShoulder  -0.970357 -6.24305 28.8434
RightArm  11.3177 2.382 46.8258
RightForeArm  16.8004 10.5276 5.76123
RightHand  -0.00524457 2.68818 -0.286408
LeftUpLeg  11.1403 5.92777 6.46761
LeftLeg  41.4797 -7.38627 -6.5614
LeftFoot  1.29009 1.15673 -10.5698
LeftToes  8.74931e-010 -1.05764e-010 1.2659e-011
823
root  50.7697 37.4561 1.03711 -137.547 85.3748 -134.735
RightUpLeg  -19.3934 -11.1759 7.86443
RightLeg  26.6119 -3.30147 -1.98347
RightFoot  -5.44094 0.28498 -6.23175
RightToes  -4.65663e-010 0 -3.6325e-017
Spine  5.29057 -1.45552 13.5854
Spine1  5.50624 -0.18215 0.915646
HEad  -22.5418 -3.24867 -2.99687
LeftShoulder1  -0.626208 5.04968 -34.3199
LeftArm  -4.35508 6.77696 -43.0787
LeftForeArm  46.8343 -2.96078 -8.9245
LeftHand  -0.245039 10.0558 -4.5014
RightShoulder  -1.18261 -6.74434 29.9906
RightArm  15.4228 1.6189 45.7476
RightForeArm  13.3233 15.7012 5.27323
RightHand  0.00216431 3.13481 -0.207063
LeftUpLeg  5.3737 3.70959 7.68874
LeftLeg  50.138 -5.7417 -6.87049
LeftFoot  8.60047 1.69034 -9.87807
LeftToes  8.74931e-010 -1.05764e-010 1.2659e-011
824
root  51.6868 37.5806 1.20298 -144.096 84.4555 -140.803
RightUpLeg  -17.0623 -11.534 7.71839
RightLeg  26.4256 -4.0689 -2.02125
RightFoot  -7.0757 0.175152 -5.98616
RightToes  -4.65663e-010 0 -3.6325e-017
Spine  7.56615 -1.37694 15.1335
Spine1  3.13795 0.660291 -0.441971
HEad  -21.6066 -4.74575 -2.25384
LeftShoulder1  -0.609883 5.03266 -33.7259
LeftArm  -4.36332 10.0555 -41.0959
LeftForeArm  46.3168 -3.46147 -8.8677
LeftHand  -0.160087 9.57083 -2.87063
RightShoulder  -1.25678 -6.90685 30.4333
RightArm  19.6859 2.25562 45.0979
RightForeArm  9.78447 20.4052 4.49319
RightHand  -0.00350255 4.00684 -0.294382
LeftUpLeg  0.51526 2.12022 8.30416
LeftLeg  56.6872 -3.94813 -5.97903
LeftFoot  6.62887 1.36602 -8.84883
LeftToes  8.74931e-010 -1.05764e-010 1.2659e-011
825
root  52.6971 37.7754 1.35743 -152.074 84.2414 -148.051
RightUpLeg  -13.9839 -11.5839 6.70552
RightLeg  25.7219 -4.80205 -1.63495
RightFoot  -8.5508 0.0853113 -5.85793
RightToes  -4.65663e-010 0 -3.6325e-017
Spine  7.42836 -0.887693 15.2225
Spine1  4.02144 1.37245 -0.694077
HEad  -20.8278 -5.42929 -2.36114
LeftShoulder1  -0.509385 4.7911 -33.4119
LeftArm  -3.28542 12.5242 -39.0043
LeftForeArm  44.3643 -5.09238 -9.31633
LeftHand  -0.154789 9.28828 -2.96327
RightShoulder  -1.15608 -6.68576 29.8082
RightArm  22.549 5.96264 46.053
RightForeArm  7.42354 19.7659 4.88716
RightHand  -0.0650315 5.30265 -1.02677
LeftUpLeg  -3.42126 0.880639 8.07845
LeftLeg  60.1072 -3.02739 -5.14717
LeftFoot  5.04266 0.822302 -5.944
LeftToes  8.74931e-010 -1.05764e-010 1.2659e-011
826
root  53.6817 37.9861 1.47264 -155.423 85.0345 -151.199
RightUpLeg  -11.3372 -10.8235 5.66386
RightLeg  24.571 -5.06779 -0.979128
RightFoot  -9.55202 0.0220555 -5.5384
RightToes  -4.65663e-010 0 -3.6325e-017
Spine  6.89623 0.105479 15.4639
Spine1  4.9083 2.55535 -1.65674
HEad  -20.5955 -5.72817 -2.59157
LeftShoulder1  -0.421233 4.57485 -33.1907
LeftArm  -0.636199 14.457 -37.0881
LeftForeArm  39.6722 -7.50746 -9.7382
LeftHand  -0.149324 9.92921 -2.30698
RightShoulder  -1.0301 -6.40287 28.9992
RightArm  23.7501 7.92352 46.5956
RightForeArm  7.14932 22.0127 4.5845
RightHand  -0.05613 4.60897 -0.944474
LeftUpLeg  -7.37901 0.348052 7.27182
LeftLeg  60.904 -2.20996 -3.75493
LeftFoot  3.79357 0.57881 -4.51743
LeftToes  8.74931e-010 -1.05764e-010 1.2659e-011
827
root  54.7731 38.1842 1.63775 -166.233 84.8472 -162.089
RightUpLeg  -8.5531 -9.88663 4.50583
RightLeg  22.9498 -6.5358 -0.616521
RightFoot  -10.685 -0.0414916 -5.31825
RightToes  -4.65663e-010 0 -3.6325e-017
Spine  5.3018 0.665721 14.8395
Spine1  6.17333 2.96953 -1.99778
HEad  -19.8299 -6.54245 -2.83474
LeftShoulder1  -0.43378 4.60225 -33.3432
LeftArm  2.67015 16.3755 -35.0876
LeftForeArm  34.1855 -10.4959 -9.327
LeftHand  -0.146123 9.68882 -2.39081
RightShoulder  -0.965006 -6.26639 28.3636
RightArm  23.431 9.49712 47.0679
RightForeArm  7.45802 23.5139 4.63777
RightHand  -0.0580512 5.17775 -0.944063
LeftUpLeg  -11.0398 -1.13614 6.25856
LeftLeg  59.1984 -1.73325 -2.60707
LeftFoot  1.64998 0.365298 -3.31271
LeftToes  8.74931e-010 -1.05764e-010 1.2659e-011
828
root  55.7108 38.3079 1.74927 -173.407 85.319 -169.068
RightUpLeg  -6.10323 -9.8408 3.56814
RightLeg  21.85 -6.27091 0.00624681
RightFoot  -11.7611 -0.0988249 -5.21428
RightToes  -4.65663e-010 0 -3.6325e-017
Spine  5.93284 1.08248 14.6136
Spine1  5.08062 3.49615 -2.99947
HEad  -18.9127 -5.89844 -3.26394
LeftShoulder1  -0.45575 4.66628 -33.0655
LeftArm  4.47924 18.6289 -34.0423
LeftForeArm  29.5723 -12.9012 -8.36889
LeftHand  -0.152809 9.78693 -2.4562
RightShoulder  -0.858177 -6.00535 27.72
RightArm  23.5491 10.6442 47.6412
RightForeArm  7.29479 24.3699 4.83395
RightHand  -0.0786349 5.28154 -1.17069
LeftUpLeg  -13.9655 -1.48791 5.44973
LeftLeg  55.6404 -1.53398 -1.93631
LeftFoot  -0.363715 0.268734 -2.76482
LeftToes  8.74931e-010 -1.05764e-010 1.2659e-011
829
root  56.6703 38.4498 1.82368 175.47 86.0997 -179.959
RightUpLeg  -3.44202 -9.74823 2.50887
RightLeg  20.3819 -5.71829 0.488156
RightFoot  -12.4201 -0.135597 -5.49161
RightToes  -4.65663e-010 0 -3.6325e-017
Spine  6.23002 1.47638 15.0831
Spine1  4.47044 4.24665 -5.39144
HEad  -17.9544 -5.42988 -3.42936
LeftShoulder1  -0.531697 4.86669 -32.8626
LeftArm  3.92442 20.1248 -33.4632
LeftForeArm  26.8529 -14.4846 -7.29196
LeftHand  -0.111368 9.41798 -1.62724
RightShoulder  -0.831094 -5.92308 27.749
RightArm  22.9286 11.5853 47.8912
RightForeArm  8.36017 25.1863 4.95954
RightHand  -0.0347577 5.42165 -0.706532
LeftUpLeg  -15.7322 -1.58192 4.21134
LeftLeg  49.5076 -1.06229 -0.934117
LeftFoot  -1.2337 0.167929 -1.82719
LeftToes  8.74931e-010 -1.05764e-010 1.2659e-011
830
root  57.6063 38.5775 1.92831 162.712 86.9453 167.598
RightUpLeg  -0.669817 -9.37524 1.89405
RightLeg  18.6727 -5.2407 0.529448
RightFoot  -12.9828 -0.168842 -5.67736
RightToes  -4.65663e-010 0 -3.6325e-017
Spine  6.61523 1.89119 15.4141
Spine1  4.21857 4.95329 -7.56842
HEad  -17.2551 -5.2461 -3.55346
LeftShoulder1  -0.543633 4.89773 -32.8474
LeftArm  3.49976 20.4923 -33.1366
LeftForeArm  24.7165 -14.9151 -6.9609
LeftHand  -0.148655 10.3555 -2.00989
RightShoulder  -0.799309 -5.8423 27.5608
RightArm  22.5587 12.2438 48.3634
RightForeArm  8.89912 25.7788 5.06262
RightHand  -0.108931 4.72706 -1.55732
LeftUpLeg  -16.5097 -0.99176 3.29274
LeftLeg  41.5127 -0.466467 -0.0530929
LeftFoot  -1.38568 0.23123 -2.55846
LeftToes  8.74931e-010 -1.05764e-010 1.2659e-011
831
root  58.4404 38.5804 2.03666 159.238 87.1603 163.703
RightUpLeg  0.702639 -9.05284 1.9975
RightLeg  17.8376 -5.32186 0.438853
RightFoot  -13.7714 -0.213538 -5.6681
RightToes  -4.65663e-010 0 -3.6325e-017
Spine  6.59474 2.07287 15.1357
Spine1  3.67633 4.95153 -8.08924
HEad  -17.4251 -4.58855 -3.837
LeftShoulder1  -0.57559 4.96776 -33.1671
LeftArm  1.20119 20.1789 -33.2835
LeftForeArm  25.5965 -13.6439 -7.21835
LeftHand  -0.0750984 8.79866 -0.903121
RightShoulder  -0.738117 -5.6737 27.3712
RightArm  22.318 12.8782 48.8284
RightForeArm  8.62715 25.6545 5.04943
RightHand  -0.0935103 5.67655 -1.28017
LeftUpLeg  -17.9779 -0.378415 2.84161
LeftLeg  32.9442 -0.729804 -0.158677
LeftFoot  -1.14233 0.351901 -3.86024
LeftToes  8.74931e-010 -1.05764e-010 1.2659e-011
